# xmcd
#
# Track frame offsets: 
#        150
#        17504
#        32095
#        55429
#        70962
#        89657
#        108310
#        123423
#        144547
#        158448
#
# Disc length: 2364 seconds
#
# Revision: 1
# Processed by: cddbd v1.5.2PL0 Copyright (c) Steve Scherf et al.
# Submitted via: ExactAudioCopyFreeDBPlugin 1.0
#
DISCID=83093a0a
DTITLE=Instant Funk - Get Down With The Philly Jump
DYEAR=1976
DGENRE=Funk
TTITLE0=It Ain't Reggae (But It's Funky)
TTITLE1=The Mack Is Back
TTITLE2=Philly Jump
TTITLE3=Give Me Your Love
TTITLE4=I Know Where You're Coming From
TTITLE5=Hup Two, Hup Two (Get In Line, Say Get In Line)
TTITLE6=So Glad I'm The One
TTITLE7=Funky Africa
TTITLE8=We Can Work It Out
TTITLE9=Go For Yourself
EXTD=YEAR: 1976
EXTT0=
EXTT1=
EXTT2=
EXTT3=
EXTT4=
EXTT5=
EXTT6=
EXTT7=
EXTT8=
EXTT9=
PLAYORDER=
